<?xml version="1.0" standalone="no"?>
<!DOCTYPE svg PUBLIC "-//W3C//DTD SVG 20010904//EN"
 "http://www.w3.org/TR/2001/REC-SVG-20010904/DTD/svg10.dtd">
<svg version="1.0" xmlns="http://www.w3.org/2000/svg"
 width="300.000000pt" height="300.000000pt" viewBox="0 0 300.000000 300.000000"
 preserveAspectRatio="xMidYMid meet">
<metadata>
Created by potrace 1.10, written by Peter Selinger 2001-2011
</metadata>
<g transform="translate(0.000000,300.000000) scale(0.100000,-0.100000)"
fill="#000000" stroke="none">
<path d="M1434 2565 c-94 -47 -175 -131 -204 -210 -41 -113 -44 -131 -26 -166
15 -29 15 -35 2 -48 -14 -13 -18 -13 -34 2 -28 26 -36 20 -13 -9 21 -26 21
-26 1 -51 -30 -39 -26 -92 10 -138 30 -38 29 -60 -3 -60 -24 0 -60 -85 -60
-141 0 -53 13 -84 54 -125 26 -26 24 -51 -6 -79 -18 -17 -25 -34 -25 -61 0
-21 4 -40 9 -43 5 -4 7 11 4 33 -5 35 -2 41 26 62 25 19 32 30 30 54 -2 16 -9
38 -17 47 -22 27 -18 117 8 168 29 57 38 43 11 -19 -11 -27 -21 -60 -21 -73 0
-33 36 -87 65 -98 33 -13 50 -56 35 -89 -10 -22 -10 -23 5 -11 13 11 15 23 11
53 -6 38 -6 39 18 35 l24 -5 -24 55 c-13 30 -24 62 -24 71 0 9 14 -13 30 -49
25 -55 28 -73 23 -115 -3 -27 -11 -61 -19 -75 -20 -40 -79 -91 -116 -101 -33
-9 -32 -9 6 -4 28 3 50 15 79 42 49 48 67 82 69 133 2 47 18 55 18 8 0 -17 3
-29 6 -25 3 3 6 29 6 57 -1 29 3 48 9 45 10 -7 12 -96 3 -144 -4 -17 -13 -31
-21 -31 -8 0 -11 -5 -8 -11 11 -17 -26 -49 -55 -49 -15 0 -33 -7 -40 -16 -26
-31 -97 -62 -175 -78 -111 -23 -177 -56 -240 -121 -73 -74 -119 -170 -119
-250 -1 -33 -5 -66 -10 -74 -5 -8 -9 -35 -7 -59 1 -28 -4 -53 -15 -69 -16 -25
-15 -27 17 -58 19 -17 56 -57 83 -89 43 -51 174 -166 188 -166 3 0 8 9 11 20
4 16 2 18 -13 10 -12 -7 -21 -7 -25 0 -3 5 19 26 50 45 85 55 86 55 67 -7 -24
-76 -30 -83 -52 -63 -17 16 -18 16 -16 0 1 -10 20 -28 42 -41 43 -26 54 -29
54 -14 0 6 -7 10 -16 10 -8 0 -13 4 -10 9 4 5 1 11 -6 13 -16 6 40 156 69 185
12 13 33 23 47 23 24 0 24 -1 10 -27 -18 -36 -18 -86 2 -179 8 -42 13 -79 10
-82 -3 -3 -6 0 -6 6 0 7 -10 12 -22 12 -46 0 -53 13 -40 72 7 29 14 63 17 76
2 13 7 32 10 43 4 10 2 19 -4 19 -10 0 -19 -26 -44 -138 l-15 -63 26 -10 c13
-5 32 -11 41 -12 9 -2 30 -10 46 -18 68 -35 208 -59 350 -59 102 0 248 20 285
40 11 6 20 9 20 6 0 -2 33 9 73 25 41 16 71 34 70 41 -5 47 -35 164 -48 186
l-15 27 4 -25 c3 -14 13 -60 23 -104 17 -76 17 -79 -2 -92 -10 -8 -27 -14 -38
-14 -10 0 -15 -5 -12 -10 3 -6 1 -10 -4 -10 -14 0 -13 12 4 85 19 76 19 142 1
178 -14 26 -14 27 13 27 38 0 55 -22 96 -125 34 -89 36 -105 9 -105 -8 0 -14
-5 -14 -10 0 -13 88 31 94 48 3 7 1 10 -4 7 -6 -3 -10 -1 -10 4 0 6 -5 11 -11
11 -6 0 -8 -7 -5 -16 4 -10 1 -14 -6 -12 -15 5 -54 106 -45 114 3 4 34 -11 67
-31 44 -27 58 -40 49 -46 -8 -5 -17 -3 -21 4 -6 9 -8 9 -8 0 0 -28 24 -22 83
20 64 46 197 178 197 195 0 30 -98 -49 -136 -110 -5 -7 -32 -25 -61 -41 -66
-35 -82 -17 -17 21 60 35 131 98 121 108 -4 4 -14 -2 -23 -14 -9 -13 -21 -19
-27 -16 -7 4 -9 4 -5 -1 7 -7 -87 -74 -104 -75 -18 0 -6 45 24 91 31 47 37 51
116 75 46 14 82 27 80 29 -7 7 -170 -36 -206 -55 -41 -21 -39 -26 5 -9 l28 10
-30 -33 c-16 -18 -30 -34 -31 -36 -1 -1 -9 0 -18 4 -17 7 -22 34 -6 34 6 0 9
5 8 11 -2 5 40 34 92 63 52 29 113 69 136 89 45 39 61 36 44 -9 -8 -21 -7 -31
6 -45 9 -10 16 -35 16 -55 l0 -38 18 24 c17 22 17 24 -2 56 -14 23 -17 42 -13
66 5 25 2 38 -9 47 -11 10 -16 31 -16 71 0 114 -105 271 -219 329 -22 12 -85
32 -139 45 -71 16 -113 33 -152 59 -30 21 -66 37 -80 37 -31 0 -75 59 -67 90
3 11 1 23 -4 26 -13 8 -11 112 3 120 8 5 9 -3 5 -29 -12 -73 27 -145 109 -204
31 -21 58 -33 78 -32 l31 1 -33 8 c-36 8 -95 51 -124 91 -31 41 -34 92 -8 146
33 71 41 94 34 104 -3 6 -21 -21 -39 -58 -18 -37 -34 -62 -34 -54 -1 8 13 43
30 78 30 61 32 63 45 44 13 -17 13 -25 0 -56 -8 -19 -13 -35 -10 -35 3 0 12
16 20 36 18 44 29 38 20 -10 -5 -25 -15 -40 -34 -51 -19 -10 -22 -14 -9 -15
22 0 21 -8 -3 -47 -14 -24 -15 -31 -5 -26 9 3 15 -1 15 -10 0 -8 8 -18 18 -22
14 -5 15 -4 5 6 -30 30 0 109 40 109 21 0 56 43 63 78 4 21 0 49 -11 78 -21
54 -14 69 11 22 22 -41 24 -128 5 -152 -27 -32 -23 -71 10 -106 26 -27 30 -38
26 -66 -4 -20 -2 -32 4 -29 5 4 9 23 9 44 0 27 -7 44 -25 61 -28 26 -32 61
-10 80 8 7 12 17 8 23 -3 5 -1 7 4 4 20 -12 47 45 47 98 0 55 -37 140 -55 129
-8 -4 -7 0 0 14 6 12 16 24 21 27 6 3 10 26 10 50 0 36 -5 47 -31 70 -17 14
-29 28 -26 32 4 3 2 14 -3 23 -7 13 -6 20 4 23 9 4 12 0 9 -13 -3 -10 0 -20 5
-24 13 -8 22 28 12 45 -5 7 -2 18 6 26 25 26 17 79 -17 115 l-31 33 20 -30
c29 -45 34 -78 16 -104 -13 -18 -19 -20 -30 -10 -10 8 -12 15 -4 23 5 5 9 26
9 46 l-1 35 -9 -30 c-8 -29 -8 -29 -5 5 2 20 -2 44 -10 54 -7 10 -18 44 -25
74 -9 47 -20 65 -67 113 -31 32 -83 73 -116 90 -51 27 -72 32 -146 36 -83 3
-90 2 -156 -32z m126 -6 c16 -30 9 -31 -23 -3 -25 21 -26 24 -8 24 11 0 25 -9
31 -21z m107 8 c-10 -7 -26 -18 -35 -25 -15 -12 -15 -13 3 -6 11 4 40 9 65 11
44 3 43 2 -20 -17 -36 -10 -65 -19 -66 -20 0 0 -1 8 -1 18 0 25 27 52 51 51
20 0 20 -1 3 -12z m-111 -47 l41 -40 39 19 c46 22 114 36 114 23 0 -5 12 -15
28 -23 52 -26 91 -60 85 -75 -4 -11 -14 -7 -47 16 -49 35 -126 48 -180 30 -53
-17 -47 -40 9 -40 25 0 60 -6 79 -14 45 -19 108 -76 102 -92 -6 -15 15 -15 25
0 4 5 12 -2 19 -14 10 -18 14 -20 22 -9 8 11 8 10 4 -4 -4 -11 2 -29 14 -44
22 -29 21 -37 -3 -27 -9 3 -17 15 -19 27 -2 12 -9 21 -15 20 -7 -2 -10 4 -7
12 5 11 2 13 -10 9 -10 -4 -16 -1 -16 7 0 7 -3 9 -6 6 -4 -3 -27 12 -53 35
-53 46 -119 78 -163 78 -39 0 -31 -10 13 -17 19 -3 51 -14 73 -25 81 -41 204
-181 225 -256 13 -44 -2 -32 -28 23 -14 29 -26 43 -33 39 -7 -5 -9 -2 -5 9 3
9 1 19 -5 23 -7 4 -8 3 -4 -4 15 -24 -6 -11 -35 23 -44 50 -148 130 -193 149
-58 24 -56 20 10 -20 69 -41 135 -103 207 -194 29 -36 63 -78 77 -93 33 -37
39 -57 29 -85 -7 -20 -12 -21 -30 -12 -33 18 -32 6 5 -46 87 -122 116 -195
101 -250 -8 -27 -9 -24 -15 26 -6 60 -20 90 -88 192 -25 39 -42 74 -39 82 4
10 -11 30 -43 57 -28 23 -48 44 -45 47 8 8 -16 32 -26 26 -5 -3 -32 31 -60 75
-28 45 -55 79 -59 76 -8 -5 -70 60 -70 73 1 4 16 -11 35 -32 19 -22 35 -36 35
-31 0 5 -7 16 -16 26 -8 9 -17 26 -18 36 -3 17 -52 50 -62 40 -12 -12 23 -66
81 -126 76 -79 84 -98 20 -44 -51 43 -115 129 -115 156 0 9 -3 17 -7 17 -19 0
-108 -88 -145 -144 -71 -105 -188 -230 -188 -201 0 4 16 23 36 43 20 20 65 80
99 132 84 126 107 152 136 154 13 1 23 7 22 14 -2 7 2 12 7 12 15 0 12 30 -4
36 -8 3 -29 -2 -47 -11 -48 -25 -129 -92 -121 -100 4 -4 0 -5 -8 -3 -8 2 -14
-3 -12 -10 1 -8 -2 -11 -7 -7 -9 5 -35 -29 -36 -47 0 -4 -5 -12 -11 -18 -8 -8
-13 -8 -17 3 -5 14 47 82 113 146 37 37 86 61 122 61 13 0 30 5 38 11 26 18
-67 1 -108 -20 -40 -20 -103 -78 -128 -117 -9 -13 -23 -24 -31 -24 -10 0 -13
-6 -8 -17 5 -14 3 -15 -5 -7 -15 15 15 78 32 68 6 -4 8 -3 5 3 -8 13 58 76
103 98 19 10 38 22 42 28 3 6 33 11 66 11 33 1 58 4 55 9 -2 4 1 7 8 7 8 0 5
7 -6 20 -11 12 -37 22 -67 26 -55 8 -47 24 12 24 28 0 44 -9 76 -40z m-59 -5
c39 -16 41 -31 3 -17 -13 5 -45 5 -72 0 -57 -11 -90 -4 -38 8 29 6 31 9 15 15
-15 6 -10 8 18 8 21 1 54 -6 74 -14z m-132 -52 c-16 -8 -39 -23 -50 -33 -37
-32 -50 -36 -32 -9 18 25 73 58 97 58 8 0 2 -7 -15 -16z m413 -26 c66 -35 114
-77 108 -93 -3 -8 -2 -12 4 -9 5 3 14 -3 19 -14 14 -25 14 -42 0 -18 -6 9 -14
15 -18 12 -5 -2 -14 2 -21 10 -7 8 -16 13 -20 10 -4 -3 -22 11 -39 30 -36 42
-92 72 -152 84 l-44 9 60 1 c45 1 71 -5 103 -22z m-327 -60 c-30 -17 -54 -36
-54 -42 1 -13 -47 -81 -86 -122 -16 -18 -27 -33 -23 -33 4 0 0 -6 -8 -13 -9
-7 -25 -28 -38 -47 -12 -19 -22 -29 -22 -21 0 20 45 97 89 151 20 24 35 47 34
51 -3 10 69 77 102 93 56 29 60 16 6 -17z m122 -108 c15 -22 55 -60 88 -86
l61 -47 -40 -14 c-34 -11 -60 -37 -49 -48 2 -2 27 6 56 17 l53 20 43 -38 c45
-40 57 -60 28 -48 -10 4 -37 10 -61 12 -37 5 -47 2 -73 -23 -32 -31 -37 -44
-14 -44 9 0 12 6 9 15 -8 19 5 20 20 1 6 -8 25 -17 42 -21 27 -5 38 -1 68 26
20 17 39 29 43 25 9 -9 -14 -182 -33 -246 -13 -43 -29 -67 -79 -116 -38 -37
-81 -68 -109 -79 -44 -17 -48 -17 -92 0 -29 11 -71 42 -109 79 -69 68 -85 105
-105 241 -16 116 -13 150 16 184 15 18 35 31 48 31 40 0 125 -30 135 -48 9
-15 10 -15 11 4 0 11 -9 29 -20 39 -25 23 -118 32 -149 15 l-23 -12 19 29 c11
15 37 54 58 86 20 31 54 71 73 89 33 28 37 29 47 13 5 -9 22 -35 38 -56z
m-258 -169 c-8 -16 -15 -32 -15 -35 1 -13 -30 -62 -53 -83 -24 -23 -24 -23
-30 -2 -4 15 10 38 51 85 31 36 57 65 59 65 2 0 -3 -13 -12 -30z m-135 -44
c-5 -15 -10 -41 -10 -58 0 -17 -3 -29 -6 -25 -10 10 -7 74 6 97 16 29 23 19
10 -14z m840 -87 c0 -23 -21 -69 -32 -69 -4 0 -11 -1 -15 -2 -10 -4 -11 41 -2
76 8 28 8 27 4 -9 -4 -40 -4 -40 11 -13 10 20 11 34 4 55 l-10 28 20 -24 c11
-13 20 -32 20 -42z m-817 -32 c-9 -17 -19 4 -21 45 l-1 43 13 -40 c7 -22 11
-43 9 -48z m36 -29 c-68 -101 -92 -161 -86 -221 4 -49 4 -50 -10 -23 -29 56 0
141 92 268 54 75 58 54 4 -24z m53 -26 c-5 -16 -16 -26 -26 -26 -16 2 -22 -22
-18 -71 2 -15 0 -16 -7 -7 -6 10 -10 5 -14 -17 -4 -21 0 -49 14 -82 24 -61 17
-75 -18 -35 -22 26 -25 37 -21 85 3 30 10 57 16 59 7 2 12 12 12 22 0 11 9 44
21 75 18 49 22 53 36 40 11 -11 12 -22 5 -43z m629 -42 l1 -25 9 25 c6 19 7
15 3 -15 -3 -22 -10 -47 -16 -55 -7 -11 -8 -8 -4 12 5 22 3 26 -9 22 -8 -4
-15 -1 -15 5 0 6 5 11 10 11 6 0 10 9 10 20 0 14 -6 20 -17 18 -20 -4 -34 41
-18 59 12 14 43 -38 46 -77z m-640 -76 c-16 -43 -30 -69 -30 -57 -1 29 53 173
57 152 1 -8 -11 -51 -27 -95z m609 17 c12 -29 21 -69 22 -88 1 -20 4 -29 9
-21 4 6 6 26 3 43 -4 25 -3 27 6 10 8 -16 9 -12 5 18 -6 37 7 52 19 21 13 -34
6 -92 -15 -118 -30 -38 -45 -34 -41 12 2 22 -7 69 -22 116 -14 43 -26 81 -26
85 0 13 21 -26 40 -78z m-537 -96 c15 -31 27 -61 27 -68 0 -15 -38 45 -57 91
-22 54 1 36 30 -23z m-40 -75 c-10 -11 -43 45 -43 74 0 30 1 29 24 -19 13 -27
21 -52 19 -55z m145 -36 c-3 -7 49 -37 72 -41 86 -15 158 6 183 54 13 25 14
22 19 -48 5 -70 46 -190 55 -162 6 17 53 -30 53 -53 0 -28 -12 -42 -44 -50
-26 -6 -28 -5 -21 17 12 37 14 69 4 69 -5 0 -10 -11 -10 -25 -1 -14 -3 -29 -4
-35 -1 -5 -3 -14 -4 -20 0 -5 -11 -10 -23 -11 -13 0 -32 -5 -43 -10 -15 -7
-12 -8 17 -5 22 3 39 0 42 -7 5 -9 7 -9 12 1 3 6 18 12 34 12 l28 0 -24 -65
c-39 -108 -98 -210 -114 -200 -4 3 -10 23 -14 46 -6 37 -3 45 33 88 41 48 63
101 42 101 -6 0 -11 -8 -11 -19 0 -10 -13 -35 -30 -56 -16 -21 -30 -43 -30
-48 0 -7 -3 -8 -10 -1 -5 5 -17 54 -26 109 -9 55 -21 105 -26 111 -9 12 -56
13 -74 1 -7 -4 -15 -33 -19 -64 -6 -56 -20 -121 -32 -153 -3 -8 -7 -34 -9 -58
-2 -23 -8 -51 -14 -62 -6 -10 -9 -23 -8 -27 1 -4 -2 -23 -6 -40 -9 -37 -35
-44 -51 -15 -68 125 -137 305 -149 388 -5 33 -2 45 14 59 18 17 19 16 25 -11
27 -127 83 -266 132 -332 39 -51 37 -32 -2 33 -34 56 -67 135 -81 190 -6 25
-4 26 22 23 23 -2 30 -10 39 -38 13 -45 51 -110 65 -110 16 0 12 13 -13 40
-21 22 -47 79 -47 101 0 4 17 5 38 3 28 -4 33 -3 22 5 -8 6 -27 11 -42 11 -25
0 -26 3 -33 61 -4 37 -3 70 3 83 22 45 32 91 32 143 0 49 2 53 15 39 9 -8 14
-18 13 -22z m-74 -247 l6 -57 -27 4 c-50 10 -58 58 -15 92 15 12 28 21 28 21
1 -1 4 -28 8 -60z m526 -6 c0 -47 -72 -255 -122 -356 -24 -48 -58 -86 -69 -79
-16 10 -9 23 9 17 11 -4 10 0 -5 11 -30 22 -29 44 3 87 14 19 38 59 54 89 29
57 90 238 90 267 0 14 2 14 20 -2 11 -10 20 -25 20 -34z m-676 -13 c2 -7 13
-53 25 -103 27 -110 90 -256 142 -330 36 -51 53 -105 29 -90 -5 3 -10 -3 -10
-14 0 -28 -19 -36 -36 -15 -28 36 -121 229 -148 306 -14 42 -33 112 -41 155
-14 72 -14 79 2 91 9 6 21 12 25 12 5 0 10 -6 12 -12z m335 -10 c0 -13 0 -166
0 -340 0 -175 -4 -329 -9 -342 -5 -13 -23 -34 -39 -46 l-31 -22 -26 57 -26 57
16 107 c17 106 45 265 71 396 8 39 17 88 19 110 3 22 5 41 6 43 0 1 4 2 10 2
5 0 10 -10 9 -22z m42 20 c0 -2 2 -25 4 -53 3 -43 2 -45 -4 -15 -10 44 -13 9
-4 -45 6 -35 7 -37 13 -15 6 24 37 -108 61 -255 40 -256 41 -264 24 -316 -19
-55 -33 -66 -64 -49 -49 26 -52 46 -50 410 0 196 5 340 10 340 5 0 9 -1 10 -2z
m350 -8 c21 -12 20 -30 -7 -148 -25 -112 -104 -296 -171 -399 -13 -20 -50 -22
-37 -2 3 5 0 9 -7 9 -7 0 -5 8 6 20 10 11 15 23 12 27 -4 3 -7 2 -7 -4 0 -5
-7 -10 -15 -10 -22 0 -19 12 20 66 64 89 138 266 165 395 12 61 12 61 41 46z
m-791 -37 c0 -83 100 -359 175 -486 19 -32 35 -63 35 -68 0 -13 -18 -11 -23 4
-4 8 -6 6 -6 -4 -1 -14 -30 -34 -54 -37 -4 -1 -14 -8 -23 -16 -16 -16 -48 -11
-37 7 4 6 1 7 -6 2 -9 -5 -10 -10 -2 -18 16 -16 14 -23 -9 -24 -11 -1 -18 2
-15 7 3 5 1 11 -5 15 -5 3 -10 -1 -10 -10 0 -9 -4 -13 -10 -10 -5 3 -10 1 -10
-6 0 -48 -45 76 -54 150 -9 70 -19 63 -13 -9 3 -37 13 -88 22 -114 17 -48 14
-69 -6 -49 -23 23 -69 298 -69 410 0 24 -4 43 -8 43 -4 0 -7 -17 -5 -37 1 -22
-3 -10 -11 27 -8 36 -12 68 -9 72 4 8 -24 68 -33 68 -3 0 -3 -3 -1 -7 13 -25
20 -51 18 -73 -1 -14 5 -56 13 -95 15 -72 11 -72 -27 -4 -10 17 -20 29 -23 27
-3 -3 11 -33 31 -66 32 -55 62 -157 53 -183 -2 -5 -16 21 -33 58 -37 86 -90
178 -127 221 -15 18 -28 31 -28 29 0 -2 23 -41 50 -87 57 -95 66 -131 21 -85
-63 66 -94 91 -83 69 17 -33 113 -115 125 -107 5 3 7 2 4 -4 -3 -5 3 -22 14
-39 26 -39 24 -52 -3 -27 -13 12 -52 38 -88 58 -36 21 -76 47 -89 59 l-24 21
14 -23 c8 -13 52 -49 98 -79 47 -31 97 -67 112 -81 41 -36 78 -139 46 -126 -7
2 -19 -7 -27 -21 -13 -25 -30 -30 -33 -10 -1 6 -13 20 -27 33 l-25 23 35 -6
c32 -5 33 -4 10 6 -14 6 -29 11 -35 12 -5 1 -13 6 -16 10 -8 10 -150 50 -156
43 -2 -2 31 -16 74 -30 71 -24 80 -31 106 -72 30 -50 35 -84 12 -84 -8 0 -15
5 -15 10 0 6 -5 10 -11 10 -7 0 -34 16 -62 36 -48 35 -49 35 -29 7 11 -15 45
-44 76 -63 30 -19 55 -41 56 -48 1 -42 -108 43 -189 149 -19 24 -31 36 -28 27
5 -15 4 -16 -13 -6 -11 7 -22 18 -24 25 -6 14 15 73 26 73 4 0 3 12 -2 26 -21
55 -11 56 53 6 34 -27 80 -59 102 -71 22 -12 55 -31 73 -43 18 -11 36 -17 40
-13 8 9 -20 29 -97 70 -82 44 -106 65 -135 123 -34 66 -33 103 4 181 60 127
118 177 257 221 111 36 113 36 113 3z m951 -9 c118 -37 194 -104 243 -217 37
-84 40 -110 17 -164 -20 -46 -20 -47 -1 -23 23 30 27 14 4 -18 -8 -12 -20 -19
-26 -16 -7 4 -8 2 -4 -4 8 -14 -16 -29 -143 -92 -70 -35 -89 -49 -85 -62 3
-11 0 -16 -13 -14 -25 4 -18 42 16 86 15 19 64 60 109 90 45 30 94 68 110 84
l27 29 -35 -25 c-19 -14 -45 -29 -57 -33 -13 -3 -23 -11 -23 -17 0 -5 -7 -7
-16 -4 -8 3 -13 2 -11 -2 2 -4 -18 -22 -44 -40 -27 -17 -49 -28 -49 -22 0 6
33 44 73 84 95 97 122 129 75 89 -20 -17 -43 -35 -51 -40 -7 -4 -21 -19 -30
-33 -9 -13 -17 -19 -17 -11 0 15 20 54 73 139 22 34 38 65 35 67 -9 9 -91
-120 -139 -218 l-50 -102 7 55 c6 54 36 126 77 185 17 24 18 27 3 16 -9 -8
-24 -28 -32 -44 -22 -42 -26 -28 -14 46 7 37 10 72 7 79 -3 7 -8 -6 -12 -29
-5 -29 -11 -40 -21 -36 -11 4 -14 -6 -14 -43 0 -141 -58 -430 -81 -407 -7 7
-3 31 10 71 21 60 29 168 13 158 -5 -3 -10 -28 -11 -56 -2 -63 -30 -134 -55
-138 -12 -2 -16 1 -10 9 5 8 3 9 -7 3 -21 -12 -49 -15 -49 -5 0 6 4 13 10 16
5 3 15 16 21 28 10 19 7 18 -18 -6 -26 -24 -32 -26 -42 -13 -7 8 -27 22 -46
31 -19 9 -35 20 -35 25 0 5 -7 7 -15 4 -20 -8 -19 2 4 34 74 106 191 417 191
510 0 37 -3 37 131 -4z m-696 -583 c1 -38 54 -158 109 -246 31 -49 32 -45 7
28 l-20 57 25 30 c14 16 29 30 32 30 4 0 19 -11 34 -23 l27 -24 -19 -63 c-11
-35 -18 -66 -16 -68 15 -14 130 233 131 280 0 21 1 38 2 38 1 0 21 -13 45 -28
24 -16 58 -34 75 -41 35 -14 63 -53 83 -113 9 -29 9 -51 0 -95 -19 -93 -40
-135 -61 -130 -11 3 -17 2 -14 -2 2 -5 -9 -8 -25 -9 -27 -1 -36 14 -19 28 9 7
46 164 54 228 5 35 3 52 -4 52 -6 0 -11 -16 -11 -36 0 -33 -27 -155 -51 -231
-10 -33 -34 -44 -41 -21 -3 7 -7 5 -11 -6 -4 -9 -3 -15 2 -11 5 3 12 1 16 -4
6 -10 -17 -8 -49 5 -13 5 -17 4 -12 -4 4 -7 -1 -10 -14 -7 -11 2 -22 0 -24 -4
-5 -7 -152 -5 -174 4 -7 2 -23 0 -37 -5 -19 -7 -23 -6 -19 5 4 10 0 13 -15 10
-12 -2 -21 0 -21 6 0 5 -4 9 -10 9 -5 0 -10 -7 -10 -16 0 -13 -3 -14 -15 -4
-8 7 -13 16 -10 20 3 5 2 10 -3 12 -11 4 -50 152 -58 221 -4 31 -10 57 -13 57
-19 0 21 -217 53 -291 6 -13 1 -15 -21 -13 -15 1 -34 2 -40 3 -24 2 -55 82
-60 156 -5 62 -2 80 17 119 19 40 32 52 90 81 38 19 71 39 75 45 12 20 20 9
20 -29z m-349 -86 c18 -44 20 -40 -21 -64 -19 -11 -35 -17 -35 -14 0 11 34
113 37 113 2 0 11 -16 19 -35z m1049 -17 c20 -70 20 -70 -21 -46 -23 13 -33
26 -30 35 4 8 9 26 12 39 10 37 22 29 39 -28z"/>
<path d="M1637 2318 c12 -13 42 -58 68 -101 26 -43 50 -76 53 -73 3 3 26 -14
52 -38 52 -48 128 -95 100 -61 -8 10 -13 19 -10 20 7 2 -63 94 -72 95 -4 0
-24 17 -44 38 -20 20 -31 28 -23 17 7 -11 42 -50 78 -87 36 -38 61 -68 56 -68
-19 0 -129 105 -172 163 -57 78 -90 117 -99 117 -4 0 2 -10 13 -22z"/>
<path d="M1560 2232 c0 -6 6 -13 13 -16 6 -4 2 -4 -10 -2 -17 3 -23 -1 -23
-15 0 -10 7 -19 15 -19 8 0 15 -4 15 -10 0 -5 -7 -10 -15 -10 -8 0 -15 -4 -15
-10 0 -5 9 -10 20 -10 26 0 28 46 3 53 -14 4 -13 5 4 6 16 1 23 -6 25 -26 3
-23 6 -25 12 -11 9 19 -12 69 -31 76 -7 2 -13 -1 -13 -6z"/>
<path d="M1390 2059 c-11 -8 -8 -9 15 -5 18 4 42 0 60 -9 l30 -15 -24 20 c-25
22 -58 26 -81 9z"/>
<path d="M1348 2033 c-10 -2 -18 -7 -18 -11 0 -13 55 -62 69 -62 11 0 8 5 -8
16 -16 12 -20 19 -12 27 8 8 15 5 27 -11 18 -27 31 -28 57 -4 19 16 20 16 14
0 -5 -14 -1 -18 14 -18 22 0 19 10 -14 48 -16 17 -31 22 -66 21 -25 -1 -54 -3
-63 -6z"/>
<path d="M1511 1847 c-1 -18 5 -29 17 -33 9 -3 23 -9 31 -13 8 -4 31 -2 50 5
27 9 37 18 39 38 2 14 -1 26 -6 26 -5 0 -8 -10 -8 -22 1 -18 -4 -22 -21 -20
-13 2 -23 -2 -23 -8 0 -6 -5 -8 -11 -4 -8 4 -7 9 2 15 8 5 12 9 9 10 -3 0 -15
2 -28 5 -14 2 -21 0 -17 -6 3 -5 -1 -10 -9 -10 -8 0 -17 10 -19 23 -4 19 -4
18 -6 -6z"/>
<path d="M1590 1760 l-25 -7 25 -5 c18 -4 12 -6 -17 -7 -24 0 -43 2 -43 7 0 4
-16 7 -35 8 -20 0 -34 -4 -32 -10 6 -17 56 -25 131 -22 71 4 106 12 106 25 0
12 -70 7 -71 -4 0 -5 -3 -3 -7 6 -5 11 -14 13 -32 9z"/>
<path d="M1521 1690 c11 -16 28 -26 48 -28 33 -3 81 20 81 39 0 5 -10 3 -22
-5 -29 -21 -68 -20 -98 1 l-25 17 16 -24z"/>
<path d="M1441 1436 c8 -41 34 -106 43 -106 5 0 -39 138 -46 145 -3 3 -2 -14
3 -39z"/>
<path d="M1688 1381 c-9 -28 -12 -49 -8 -46 11 7 33 72 28 86 -2 6 -11 -12
-20 -40z"/>
<path d="M1542 1190 c-8 -52 -22 -131 -32 -175 -11 -43 -17 -81 -15 -83 2 -3
7 8 11 24 7 25 8 26 15 9 5 -13 6 -3 4 25 -4 35 -3 39 4 20 l9 -25 3 30 c1 17
2 48 1 70 -1 34 0 36 8 15 8 -24 8 -24 9 7 1 17 -3 33 -9 35 -6 2 -5 19 1 47
5 25 9 56 7 70 -2 14 -9 -17 -16 -69z"/>
<path d="M1621 1132 c0 -19 8 -70 20 -114 11 -44 18 -82 16 -84 -4 -5 -18 42
-41 141 -8 33 -15 50 -15 38 -1 -28 25 -141 42 -183 14 -31 14 -31 20 -9 4 13
-2 62 -13 109 -11 47 -21 96 -23 110 -3 20 -5 18 -6 -8z"/>
<path d="M1144 1234 c8 -46 48 -165 54 -160 2 2 -6 34 -17 71 -12 37 -21 78
-21 90 0 13 -5 27 -11 31 -9 5 -10 -4 -5 -32z"/>
<path d="M1213 960 c3 -8 11 -32 18 -52 7 -21 16 -38 21 -38 5 0 7 -4 4 -9 -4
-5 4 -31 16 -58 12 -26 22 -51 22 -55 1 -3 5 -10 10 -15 5 -4 6 -3 3 3 -4 7 0
15 8 18 12 4 6 22 -31 93 -45 86 -82 143 -71 113z"/>
<path d="M2007 1245 c-4 -16 -18 -66 -32 -110 -14 -46 -19 -72 -11 -62 21 27
58 152 54 178 -4 22 -5 22 -11 -6z"/>
<path d="M1910 910 c-12 -23 -39 -71 -61 -106 -26 -44 -34 -64 -24 -64 7 0 17
-4 20 -10 4 -6 -1 -7 -12 -3 -15 5 -16 3 -5 -8 19 -21 40 5 21 27 -12 16 -12
17 4 11 15 -6 22 3 18 26 0 4 4 7 10 7 6 0 8 7 5 17 -4 10 -4 14 0 10 4 -4 18
23 31 60 27 77 24 93 -7 33z"/>
<path d="M1381 649 c-1 -20 7 -60 18 -90 26 -77 105 -226 109 -206 2 9 -8 36
-22 59 -30 52 -63 133 -87 213 -16 55 -18 57 -18 24z"/>
<path d="M1757 614 c-21 -84 -79 -208 -92 -197 -4 4 -5 3 -1 -4 4 -7 -1 -25
-11 -39 -14 -22 -14 -26 -3 -22 38 12 134 237 128 298 -3 30 -5 25 -21 -36z"/>
<path d="M1330 622 c0 -69 105 -323 117 -285 6 16 5 23 -4 25 -14 3 -74 149
-89 217 -18 76 -24 87 -24 43z"/>
<path d="M1813 594 c-16 -68 -58 -178 -89 -233 -19 -35 -21 -41 -6 -28 42 38
115 226 110 281 -3 28 -5 26 -15 -20z"/>
</g>
</svg>
